<?xml version="1.0" standalone="no"?><!DOCTYPE svg PUBLIC "-//W3C//DTD SVG 1.1//EN" "http://www.w3.org/Graphics/SVG/1.1/DTD/svg11.dtd"><svg class="icon" width="200px" height="200.00px" viewBox="0 0 1024 1024" version="1.1" xmlns="http://www.w3.org/2000/svg"><path fill="#333333" d="M512.456395 64.123436c-247.596098 0-448.311469 200.694905-448.311469 448.310446 0 247.610424 200.715371 448.309422 448.311469 448.309422 247.613494 0 448.309422-200.697975 448.309422-448.309422C960.764793 264.818341 760.069889 64.123436 512.456395 64.123436zM828.420603 774.85871c-40.97011-17.10968-137.706315-50.67617-197.556425-68.351738-5.126764-1.604544-5.909593-1.860371-5.909593-23.112394 0-17.548678 7.203052-35.224246 14.246469-50.182936 7.640004-16.254196 16.689101-43.580564 19.919678-68.096934 9.103332-10.543124 21.471011-31.337729 29.405727-70.978565 6.986111-34.932604 3.720741-47.647183-0.89437-59.576887-0.49221-1.25969-1.003863-2.49789-1.349741-3.741207-1.7519-8.18952 0.63752-50.748824 6.621814-83.764775 4.140297-22.655999-1.038656-70.832232-32.233122-110.692055-19.699668-25.190729-57.408501-56.111972-126.252449-60.415998l-37.759999 0.036839c-67.675332 4.26821-105.383142 35.189454-125.08281 60.379159-31.193443 39.860846-36.373419 88.036056-32.252565 110.674659 6.000668 33.033347 8.391111 75.592652 6.67605 83.621513-0.38067 1.403976-0.89437 2.6432-1.385557 3.90289-4.615111 11.929704-7.881504 24.644283-0.895393 59.576887 7.93574 39.640836 20.302395 60.435441 29.404704 70.978565 3.231601 24.517393 12.279674 51.842739 19.920702 68.096934 5.600555 11.893888 8.211009 28.074406 8.211009 50.948369 0 21.252023-0.785899 21.50785-5.581112 23.024389-61.913095 18.276249-160.455435 53.883211-197.195198 69.974701-60.434417-71.565942-96.972589-163.93877-96.972589-264.72522 0-226.600925 184.352705-410.952606 410.951583-410.952606 226.599901 0 410.95056 184.351682 410.95056 410.952606C923.405931 612.124372 887.688451 703.624319 828.420603 774.85871z" /></svg>
