<?xml version="1.0" standalone="no"?><!DOCTYPE svg PUBLIC "-//W3C//DTD SVG 1.1//EN" "http://www.w3.org/Graphics/SVG/1.1/DTD/svg11.dtd"><svg t="1494937458800" class="icon" style="" viewBox="0 0 1024 1024" version="1.1" xmlns="http://www.w3.org/2000/svg" p-id="5728" xmlns:xlink="http://www.w3.org/1999/xlink" width="200" height="200"><defs><style type="text/css"></style></defs><path d="M512 96.001411c-229.753142 0-415.998589 186.245447-415.998589 415.998589 0 229.753142 186.245447 415.998589 415.998589 415.998589s415.998589-186.245447 415.998589-415.998589C927.998589 282.246858 741.753142 96.001411 512 96.001411zM512 902.598404c-215.73224 0-390.598404-174.866164-390.598404-390.598404 0-215.709662 174.888742-390.598404 390.598404-390.598404 215.73224 0 390.598404 174.888742 390.598404 390.598404C902.620982 727.73224 727.73224 902.598404 512 902.598404z" p-id="5729"></path><path d="M512 245.264188 512 140.45738c-33.257309 0-65.498611 4.425277-96.182035 12.643648l27.138687 101.239494C464.992724 248.447678 488.135115 245.264188 512 245.264188z" p-id="5730"></path><path d="M355.218768 296.200026l-61.592627-84.780174c-26.912907 19.552498-50.37139 42.085285-70.375446 66.740398l81.461216 65.972748C319.071482 326.409313 335.914627 310.243507 355.218768 296.200026z" p-id="5731"></path><path d="M258.336817 429.567932l-99.681616-32.376769c-10.272964 31.631697-16.007761 63.669798-17.701107 95.369229l104.671341 5.48644C246.822066 475.265688 250.95383 452.281342 258.336817 429.567932z" p-id="5732"></path><path d="M158.655201 626.808837c10.295542 31.631697 24.451912 60.915289 41.746616 87.557261l87.918508-57.077038c-12.417868-19.146095-22.577942-40.16616-29.96093-62.856992L158.655201 626.808837z" p-id="5733"></path><path d="M293.626141 812.557569c26.912907 19.552498 55.609472 34.905499 85.231733 46.30736l37.569696-97.852802c-21.291-8.195793-41.882083-19.213829-61.208802-33.257309L293.626141 812.557569z" p-id="5734"></path><path d="M512 778.735812l0 104.784231c33.257309 0 65.498611-4.425277 96.182035-12.643648l-27.116109-101.239494C559.007276 775.552322 535.887463 778.713234 512 778.735812z" p-id="5735"></path><path d="M668.80381 727.777396l61.592627 84.802752c26.912907-19.552498 50.393967-42.085285 70.375446-66.762976l-81.438638-65.972748C704.928518 697.590687 688.107951 713.756493 668.80381 727.777396z" p-id="5736"></path><path d="M778.397142 525.93059c-1.219209 22.781144-5.328394 45.765489-12.711382 68.478899l99.681616 32.399347c10.250386-31.631697 16.007761-63.669798 17.678529-95.369229L778.397142 525.93059z" p-id="5737"></path><path d="M865.389955 397.168585c-10.295542-31.631697-24.451912-60.915289-41.746616-87.557261l-87.89593 57.077038c12.39529 19.146095 22.577942 40.16616 29.96093 62.856992L865.389955 397.168585z" p-id="5738"></path><path d="M730.419015 211.397275c-26.912907-19.52992-55.586894-34.905499-85.254311-46.284782l-37.569696 97.830224c21.291 8.195793 41.882083 19.236407 61.186224 33.234731L730.419015 211.397275z" p-id="5739"></path><path d="M512.022578 350.816069l0-63.331128c-20.094369 0-39.579133 2.686775-58.093046 7.631345l16.391586 61.163646C483.596948 352.757772 497.595273 350.816069 512.022578 350.816069z" p-id="5740"></path><path d="M462.215637 358.718349l-19.575076-60.215372c-19.100939 6.208934-36.802046 14.788552-52.900119 25.219562l34.476518 53.125898C435.799444 369.329982 448.488248 363.166204 462.215637 358.718349z" p-id="5741"></path><path d="M417.262954 381.612383l-37.231027-51.229351c-16.256119 11.830842-30.435066 25.422763-42.514266 40.346783l49.219914 39.850068C395.430083 399.85536 405.612735 390.079111 417.262954 381.612383z" p-id="5742"></path><path d="M381.612383 417.262954l-51.229351-37.231027c-11.830842 16.256119-21.087798 33.595978-27.974071 51.500287l59.131631 22.690832C366.485161 441.376196 373.145654 428.93575 381.612383 417.262954z" p-id="5743"></path><path d="M358.718349 462.193059l-60.215372-19.575076c-6.208934 19.123517-9.685937 38.472814-10.701945 57.618909l63.240817 3.318958C351.786921 489.805883 354.293072 475.920448 358.718349 462.193059z" p-id="5744"></path><path d="M350.838647 512l-63.331128 0c0 20.094369 2.686775 39.556555 7.631345 58.093046l61.163646-16.391586C352.757772 540.380474 350.838647 526.427305 350.838647 512z" p-id="5745"></path><path d="M358.718349 561.784363l-60.215372 19.575076c6.208934 19.100939 14.788552 36.824624 25.219562 52.900119l53.125898-34.476518C369.35256 588.223134 363.188782 575.511752 358.718349 561.784363z" p-id="5746"></path><path d="M381.634961 606.714468l-51.229351 37.208449c11.830842 16.278696 25.422763 30.435066 40.324205 42.514266l39.872646-49.197337C399.877938 628.569917 390.124267 618.409843 381.634961 606.714468z" p-id="5747"></path><path d="M417.262954 642.387617l-37.231027 51.229351c16.256119 11.808264 33.595978 21.087798 51.500287 27.974071l22.690832-59.131631C441.398774 657.514839 428.958328 650.854346 417.262954 642.387617z" p-id="5748"></path><path d="M442.617983 725.497023c19.123517 6.208934 38.472814 9.685937 57.641487 10.701945l3.318958-63.240817c-13.749967-0.745072-27.657979-3.228646-41.385368-7.6765L442.617983 725.497023z" p-id="5749"></path><path d="M512.022578 673.161353l0 63.331128c20.094369 0 39.579133-2.686775 58.093046-7.631345l-16.369008-61.186224C540.425629 671.21965 526.449883 673.161353 512.022578 673.161353z" p-id="5750"></path><path d="M561.806941 665.281651l19.552498 60.23795c19.100939-6.231512 36.802046-14.788552 52.900119-25.219562l-34.476518-53.125898C588.245712 654.670018 575.53433 660.811218 561.806941 665.281651z" p-id="5751"></path><path d="M606.737046 642.387617l37.231027 51.251929c16.256119-11.830842 30.435066-25.445341 42.514266-40.346783l-49.219914-39.872646C628.592495 624.122062 618.409843 633.898311 606.737046 642.387617z" p-id="5752"></path><path d="M642.410195 606.714468l51.229351 37.231027c11.808264-16.278696 21.087798-33.595978 27.974071-51.500287l-59.109053-22.690832C657.537417 582.623804 650.876924 595.06425 642.410195 606.714468z" p-id="5753"></path><path d="M665.304229 561.784363l60.23795 19.575076c6.208934-19.123517 9.685937-38.472814 10.679367-57.618909l-63.218239-3.341535C672.235657 534.194117 669.752084 548.079552 665.304229 561.784363z" p-id="5754"></path><path d="M673.183931 512l63.353706 0c0-20.094369-2.686775-39.579133-7.653922-58.093046l-61.186224 16.369008C671.242228 483.596948 673.183931 497.572695 673.183931 512z" p-id="5755"></path><path d="M665.281651 462.193059l60.23795-19.575076c-6.231512-19.100939-14.788552-36.802046-25.24214-52.900119l-53.103321 34.476518C654.692596 435.776866 660.833796 448.46567 665.281651 462.193059z" p-id="5756"></path><path d="M642.410195 417.262954l51.251929-37.231027c-11.830842-16.256119-25.422763-30.435066-40.346783-42.514266l-39.850068 49.219914C624.14464 395.407505 633.920889 405.590157 642.410195 417.262954z" p-id="5757"></path><path d="M606.737046 381.612383l37.231027-51.229351c-16.256119-11.808264-33.595978-21.087798-51.500287-27.951493l-22.690832 59.109053C582.646382 366.462583 595.06425 373.123076 606.737046 381.612383z" p-id="5758"></path><path d="M581.382017 298.480399c-19.100939-6.208934-38.450236-9.663359-57.618909-10.679367l-3.318958 63.240817c13.749967 0.722494 27.657979 3.228646 41.36279 7.6765L581.382017 298.480399z" p-id="5759"></path><path d="M751.75517 512c0-132.216431-107.53874-239.75517-239.75517-239.75517-132.216431 0-239.75517 107.561318-239.75517 239.75517 0 132.193853 107.561318 239.75517 239.75517 239.75517C644.216431 751.75517 751.75517 644.216431 751.75517 512zM283.014508 512c0-126.278432 102.729638-229.00807 229.00807-229.00807 126.255854 0 228.985492 102.729638 228.985492 229.00807s-102.729638 229.00807-228.985492 229.00807C385.721568 740.985492 283.014508 638.255854 283.014508 512z" p-id="5760"></path><path d="M774.468581 512c0-144.724611-117.74397-262.491158-262.468581-262.491158-144.724611 0-262.491158 117.766548-262.491158 262.491158 0 144.724611 117.766548 262.491158 262.491158 262.491158S774.468581 656.724611 774.468581 512zM260.27852 512c0-138.80919 112.91229-251.72148 251.72148-251.72148 138.786612 0 251.698902 112.91229 251.698902 251.72148 0 138.786612-112.91229 251.72148-251.698902 251.72148C373.19081 763.698902 260.27852 650.786612 260.27852 512z" p-id="5761"></path><path d="M512 126.707413c-212.43586 0-385.292587 172.834149-385.292587 385.292587 0 212.458438 172.856727 385.270009 385.292587 385.270009 212.43586 0 385.270009-172.834149 385.270009-385.270009C897.292587 299.56414 724.43586 126.707413 512 126.707413zM512 886.522909c-206.520439 0-374.522909-168.002469-374.522909-374.522909 0-206.520439 168.002469-374.522909 374.522909-374.522909 206.497861 0 374.522909 168.002469 374.522909 374.522909C886.522909 718.497861 718.497861 886.522909 512 886.522909z" p-id="5762"></path><path d="M525.953168 538.167835l43.281916 43.281916c-1.399832 5.554174 0.022578 11.672796 4.380121 16.007761 6.592759 6.570181 17.272126 6.570181 23.864885 0 6.592759-6.570181 6.592759-17.272126 0-23.842307-4.334965-4.334965-10.453587-5.757375-15.985183-4.402699l-43.304494-43.281916c4.651056-8.737664 4.651056-19.168673 0-27.883759l43.281916-43.281916c5.554174 1.377254 11.672796-0.022578 16.030339-4.380121 6.570181-6.592759 6.570181-17.272126 0-23.842307-6.570181-6.592759-17.272126-6.592759-23.842307 0-4.334965 4.334965-5.757375 10.431009-4.402699 15.985183l-43.281916 43.304494c-8.737664-4.651056-19.168673-4.651056-27.906337 0L454.764916 442.527671c1.377254-5.554174-0.022578-11.672796-4.380121-16.007761-6.592759-6.592759-17.272126-6.592759-23.864885 0-6.592759 6.592759-6.592759 17.272126 0 23.864885 4.334965 4.334965 10.453587 5.757375 15.985183 4.380121l43.281916 43.304494c-4.651056 8.737664-4.651056 19.168673 0 27.906337L442.527671 569.235084c-5.554174-1.399832-11.672796 0.022578-16.030339 4.357543-6.592759 6.592759-6.592759 17.272126 0 23.864885 6.592759 6.592759 17.272126 6.592759 23.864885 0 4.334965-4.334965 5.757375-10.453587 4.402699-15.985183l43.304494-43.304494C506.761917 542.818891 517.215505 542.818891 525.953168 538.167835z" p-id="5763"></path><path d="M272.24483 736.492481m-17.272126 0a7.65 7.65 0 1 0 34.544252 0 7.65 7.65 0 1 0-34.544252 0Z" p-id="5764"></path></svg>