<?xml version="1.0" standalone="no"?><!DOCTYPE svg PUBLIC "-//W3C//DTD SVG 1.1//EN" "http://www.w3.org/Graphics/SVG/1.1/DTD/svg11.dtd"><svg t="1495213465388" class="icon" style="" viewBox="0 0 1024 1024" version="1.1" xmlns="http://www.w3.org/2000/svg" p-id="1003" xmlns:xlink="http://www.w3.org/1999/xlink" width="200" height="200"><defs><style type="text/css"></style></defs><path d="M204.8 870.4c0-27.307008 10.24-51.2 30.72-71.68 20.48-20.48 44.372992-30.72 71.68-30.72 28.672 0 52.907008 10.24 72.704 30.72 19.796992 20.48 29.696 44.372992 29.696 71.68 0 28.672-9.899008 52.907008-29.696 72.704-19.796992 19.796992-44.032 29.696-72.704 29.696-27.307008 0-51.2-9.899008-71.68-29.696-20.48-19.796992-30.72-44.032-30.72-72.704 0 0 0 0 0 0m512 0c0-27.307008 10.24-51.2 30.72-71.68 20.48-20.48 44.372992-30.72 71.68-30.72 28.672 0 52.907008 10.24 72.704 30.72 19.796992 20.48 29.696 44.372992 29.696 71.68 0 28.672-9.899008 52.907008-29.696 72.704-19.796992 19.796992-44.032 29.696-72.704 29.696-27.307008 0-51.2-9.899008-71.68-29.696-20.48-19.796992-30.72-44.032-30.72-72.704 0 0 0 0 0 0m-329.728-241.664c-24.576 6.827008-36.180992 14.676992-34.816 23.552 1.364992 8.875008 16.384 13.312 45.056 13.312 0 0 575.488 0 575.488 0 0 0 0 77.824 0 77.824 0 13.652992-6.827008 20.48-20.48 20.48 0 0-133.12 0-133.12 0 0 0-512 0-512 0 0 0-24.576 0-24.576 0-13.652992 0-20.48-6.827008-20.48-20.48 0 0 0-77.824 0-77.824 0 0-10.24-47.104-10.24-47.104 0 0-100.352-464.896-100.352-464.896 0 0-100.352 0-100.352 0 0 0 0-81.92 0-81.92 0-13.652992 6.827008-20.48 20.48-20.48 0 0 159.744 0 159.744 0 13.652992 0 20.48 6.827008 20.48 20.48 0 0 0 88.064 0 88.064 0 0 720.896 0 720.896 0 0 0 0 280.576 0 280.576 0 15.019008-6.144 23.892992-18.432 26.624 0 0-567.296 161.792-567.296 161.792" p-id="1004" fill="#ffffff"></path></svg>