<?xml version="1.0" standalone="no"?><!DOCTYPE svg PUBLIC "-//W3C//DTD SVG 1.1//EN" "http://www.w3.org/Graphics/SVG/1.1/DTD/svg11.dtd"><svg t="1497859443903" class="icon" style="" viewBox="0 0 1024 1024" version="1.1" xmlns="http://www.w3.org/2000/svg" p-id="7730" xmlns:xlink="http://www.w3.org/1999/xlink" width="210" height="210"><defs><style type="text/css"></style></defs><path d="M150.621091 770.932364a45.661091 45.661091 0 0 0 3.397818 57.390545l33.233455 34.397091a45.661091 45.661091 0 0 0 57.250909 5.399273l63.860363-45.102546c16.989091-12.008727 72.610909 0.186182 89.367273 6.050909 16.709818 5.864727 32.674909 27.554909 35.514182 48.174546l10.565818 77.544727a45.614545 45.614545 0 0 0 42.961455 38.167273l47.848727 0.837818a45.707636 45.707636 0 0 0 44.264727-36.631273l13.265455-77.125818c3.490909-20.526545 50.827636-51.060364 67.025454-58.740364 16.244364-7.726545 43.054545-3.723636 59.624728 8.890182l62.231272 47.290182a45.707636 45.707636 0 0 0 57.437091-3.397818l34.397091-33.233455a45.661091 45.661091 0 0 0 5.399273-57.250909l-45.102546-63.813818c-12.008727-16.989091 0.186182-72.610909 6.050909-89.367273 5.864727-16.756364 27.554909-32.674909 48.174546-35.514181l77.498182-10.519273a45.707636 45.707636 0 0 0 38.213818-43.008l0.837818-47.848727a45.707636 45.707636 0 0 0-36.677818-44.264728l-77.079273-13.265454c-20.526545-3.490909-51.060364-50.874182-58.740363-67.025455-7.68-16.290909-3.723636-43.101091 8.890181-59.671273l47.290182-62.231272a45.707636 45.707636 0 0 0-3.351273-57.390546l-33.28-34.443636a45.707636 45.707636 0 0 0-57.250909-5.352727l-63.813818 45.102545c-17.035636 12.008727-72.610909-0.186182-89.367273-6.050909-16.756364-5.864727-32.721455-27.554909-35.514181-48.174545l-10.565819-77.544728a45.614545 45.614545 0 0 0-42.961454-38.167272L503.621818 24.203636a45.707636 45.707636 0 0 0-44.264727 36.677819l-13.265455 77.079272c-3.490909 20.526545-50.874182 51.060364-67.072 58.740364-16.244364 7.68-43.054545 3.723636-59.624727-8.936727L257.210182 140.474182a45.707636 45.707636 0 0 0-57.390546 3.397818l-34.443636 33.233455a45.707636 45.707636 0 0 0-5.352727 57.250909l45.056 63.860363c12.055273 16.989091-0.186182 72.610909-6.050909 89.367273-5.818182 16.756364-27.461818 32.721455-48.174546 35.514182l-77.498182 10.565818a45.614545 45.614545 0 0 0-38.167272 42.961455l-0.837819 47.848727a45.707636 45.707636 0 0 0 36.677819 44.264727l77.079272 13.265455c20.48 3.490909 51.060364 50.874182 58.740364 67.025454 7.68 16.290909 3.723636 43.101091-8.936727 59.671273l-47.290182 62.231273z m501.573818-124.136728a191.581091 191.581091 0 1 1-266.146909-275.642181 191.581091 191.581091 0 0 1 266.146909 275.642181z m-25.832727-94.487272a115.665455 115.665455 0 1 0-214.481455-86.667637 115.665455 115.665455 0 0 0 214.481455 86.667637z" p-id="7731" fill="#1296db"></path></svg>