<?xml version="1.0" standalone="no"?><!DOCTYPE svg PUBLIC "-//W3C//DTD SVG 1.1//EN" "http://www.w3.org/Graphics/SVG/1.1/DTD/svg11.dtd"><svg t="1493815128773" class="icon" style="" viewBox="0 0 1120 1024" version="1.1" xmlns="http://www.w3.org/2000/svg" p-id="1355" xmlns:xlink="http://www.w3.org/1999/xlink" width="140" height="128"><defs><style type="text/css"></style></defs><path d="M93.535691 187.071381l932.493276 0c51.660481 0 93.535691-41.875209 93.535691-93.535691s-41.875209-93.535691-93.535691-93.535691L93.535691 0C41.875209 0 0 41.875209 0 93.535691S41.875209 187.071381 93.535691 187.071381z" p-id="1356" fill="#ffffff"></path><path d="M1026.028966 418.43551 93.535691 418.43551c-51.660481 0-93.535691 41.875209-93.535691 93.535691 0 51.646091 41.875209 93.535691 93.535691 93.535691l932.493276 0c51.660481 0 93.535691-41.875209 93.535691-93.535691C1119.564657 460.310719 1077.689448 418.43551 1026.028966 418.43551z" p-id="1357" fill="#ffffff"></path><path d="M1026.028966 836.92858 93.535691 836.92858c-51.660481 0-93.535691 41.860819-93.535691 93.535691 0 51.660481 41.875209 93.535691 93.535691 93.535691l932.493276 0c51.660481 0 93.535691-41.875209 93.535691-93.535691C1119.564657 878.789399 1077.689448 836.92858 1026.028966 836.92858z" p-id="1358" fill="#ffffff"></path></svg>